<svg width="1440" height="1075" viewBox="0 0 1440 1075" fill="none" xmlns="http://www.w3.org/2000/svg">
<rect width="1440" height="1075" fill="#222222"/>
<path d="M495.723 160.916C495.723 165.262 495.186 169.144 494.111 172.562C493.037 175.979 491.572 179.007 489.717 181.644C487.91 184.231 485.811 186.453 483.418 188.309C481.025 190.164 478.511 191.678 475.874 192.85C473.286 194.021 470.649 194.876 467.964 195.413C465.327 195.95 462.837 196.219 460.493 196.219H417.427V177.176H460.493C462.935 176.98 465.132 176.492 467.085 175.711C469.087 174.881 470.796 173.782 472.212 172.415C473.628 171.048 474.727 169.412 475.508 167.508C476.289 165.555 476.68 163.357 476.68 160.916V152.273C476.436 149.881 475.923 147.684 475.142 145.682C474.36 143.68 473.286 141.971 471.919 140.555C470.601 139.139 468.989 138.04 467.085 137.259C465.181 136.429 462.983 136.014 460.493 136.014H417.573C415.034 136.014 413.105 136.673 411.787 137.991C410.469 139.31 409.81 141.214 409.81 143.704V222H390.767V143.704C390.767 138.821 391.646 134.671 393.403 131.253C395.21 127.835 397.432 125.076 400.068 122.977C402.754 120.877 405.659 119.363 408.784 118.436C411.909 117.459 414.79 116.971 417.427 116.971H460.493C464.79 116.971 468.647 117.532 472.065 118.655C475.483 119.729 478.486 121.194 481.074 123.05C483.711 124.856 485.933 126.956 487.739 129.349C489.595 131.741 491.108 134.256 492.28 136.893C493.501 139.48 494.38 142.117 494.917 144.803C495.454 147.439 495.723 149.93 495.723 152.273V160.916ZM578.779 161.868H535.933C533.345 161.868 531.392 162.527 530.073 163.846C528.755 165.115 528.096 166.995 528.096 169.485V222H509.053V169.485C509.053 166.214 509.468 163.284 510.298 160.696C511.128 158.108 512.227 155.838 513.594 153.885C515.01 151.883 516.621 150.198 518.428 148.831C520.234 147.415 522.114 146.268 524.067 145.389C526.069 144.51 528.071 143.875 530.073 143.484C532.124 143.045 534.028 142.825 535.786 142.825H578.779V161.868ZM677.217 195.267C677.217 198.538 676.802 201.492 675.972 204.129C675.142 206.717 674.043 209.012 672.676 211.014C671.309 212.967 669.722 214.651 667.915 216.067C666.108 217.435 664.204 218.558 662.202 219.437C660.249 220.315 658.247 220.975 656.196 221.414C654.194 221.805 652.29 222 650.483 222H616.133C613.496 222 610.615 221.536 607.49 220.608C604.365 219.681 601.46 218.167 598.774 216.067C596.138 213.919 593.916 211.16 592.109 207.791C590.352 204.373 589.473 200.198 589.473 195.267V169.485C589.473 164.603 590.352 160.477 592.109 157.107C593.916 153.689 596.138 150.931 598.774 148.831C601.46 146.683 604.365 145.145 607.49 144.217C610.615 143.289 613.496 142.825 616.133 142.825H650.483C655.366 142.825 659.517 143.704 662.935 145.462C666.353 147.22 669.111 149.441 671.211 152.127C673.311 154.764 674.824 157.645 675.752 160.77C676.729 163.895 677.217 166.8 677.217 169.485V195.267ZM658.174 169.632C658.174 166.995 657.515 165.042 656.196 163.772C654.878 162.503 652.974 161.868 650.483 161.868H616.279C613.74 161.868 611.812 162.527 610.493 163.846C609.175 165.115 608.516 166.995 608.516 169.485V195.267C608.516 197.757 609.175 199.661 610.493 200.979C611.812 202.298 613.74 202.957 616.279 202.957H650.483C653.071 202.957 655 202.298 656.27 200.979C657.539 199.661 658.174 197.757 658.174 195.267V169.632ZM712.812 126.565H693.77V109.354H712.812V126.565ZM712.812 229.617C712.812 232.889 712.397 235.818 711.567 238.406C710.737 241.043 709.639 243.338 708.271 245.291C706.904 247.293 705.317 248.978 703.511 250.345C701.704 251.761 699.8 252.908 697.798 253.787C695.845 254.666 693.867 255.301 691.865 255.691C689.863 256.131 687.959 256.351 686.152 256.351H651.802V237.308H686.152C688.691 237.308 690.596 236.648 691.865 235.33C693.135 234.012 693.77 232.107 693.77 229.617V142.825H712.812V229.617ZM816.304 169.046C816.304 171.683 815.84 174.539 814.912 177.615C813.984 180.643 812.471 183.475 810.371 186.111C808.32 188.699 805.61 190.872 802.241 192.63C798.921 194.388 794.868 195.267 790.083 195.267H755.732V177.176H790.083C792.671 177.176 794.673 176.395 796.089 174.832C797.505 173.221 798.213 171.243 798.213 168.899C798.213 166.409 797.407 164.456 795.796 163.04C794.233 161.624 792.329 160.916 790.083 160.916H755.732C753.145 160.916 751.143 161.722 749.727 163.333C748.311 164.896 747.603 166.849 747.603 169.192V195.779C747.603 198.318 748.384 200.296 749.946 201.712C751.558 203.128 753.535 203.836 755.879 203.836H790.083V222H755.732C753.096 222 750.239 221.536 747.163 220.608C744.136 219.681 741.304 218.191 738.667 216.141C736.079 214.041 733.906 211.331 732.148 208.011C730.391 204.642 729.512 200.564 729.512 195.779V169.046C729.512 166.409 729.976 163.577 730.903 160.55C731.831 157.474 733.32 154.642 735.371 152.054C737.471 149.417 740.181 147.22 743.501 145.462C746.87 143.704 750.947 142.825 755.732 142.825H790.083C792.72 142.825 795.552 143.289 798.579 144.217C801.655 145.145 804.487 146.658 807.075 148.758C809.712 150.809 811.909 153.519 813.667 156.888C815.425 160.208 816.304 164.261 816.304 169.046ZM901.118 161.868H867.866V222H848.604V161.868H823.848V142.825H848.604V116.971H867.866V142.825H901.118V161.868ZM999.482 195.267C999.482 198.538 999.067 201.492 998.237 204.129C997.407 206.717 996.309 209.012 994.941 211.014C993.574 212.967 991.987 214.651 990.181 216.067C988.374 217.435 986.47 218.558 984.468 219.437C982.515 220.315 980.513 220.975 978.462 221.414C976.46 221.805 974.556 222 972.749 222H938.398C935.762 222 932.881 221.536 929.756 220.608C926.631 219.681 923.726 218.167 921.04 216.067C918.403 213.919 916.182 211.16 914.375 207.791C912.617 204.373 911.738 200.198 911.738 195.267V169.485C911.738 164.603 912.617 160.477 914.375 157.107C916.182 153.689 918.403 150.931 921.04 148.831C923.726 146.683 926.631 145.145 929.756 144.217C932.881 143.289 935.762 142.825 938.398 142.825H972.749C977.632 142.825 981.782 143.704 985.2 145.462C988.618 147.22 991.377 149.441 993.477 152.127C995.576 154.764 997.09 157.645 998.018 160.77C998.994 163.895 999.482 166.8 999.482 169.485V195.267ZM980.439 169.632C980.439 166.995 979.78 165.042 978.462 163.772C977.144 162.503 975.239 161.868 972.749 161.868H938.545C936.006 161.868 934.077 162.527 932.759 163.846C931.44 165.115 930.781 166.995 930.781 169.485V195.267C930.781 197.757 931.44 199.661 932.759 200.979C934.077 202.298 936.006 202.957 938.545 202.957H972.749C975.337 202.957 977.266 202.298 978.535 200.979C979.805 199.661 980.439 197.757 980.439 195.267V169.632ZM1092.28 195.267C1092.28 198.538 1091.87 201.492 1091.04 204.129C1090.21 206.717 1089.11 209.012 1087.74 211.014C1086.37 212.967 1084.79 214.651 1082.98 216.067C1081.17 217.435 1079.27 218.558 1077.27 219.437C1075.31 220.315 1073.31 220.975 1071.26 221.414C1069.26 221.805 1067.35 222 1065.55 222H1013.98V202.957H1065.4C1067.99 202.957 1069.94 202.298 1071.26 200.979C1072.58 199.661 1073.24 197.757 1073.24 195.267C1072.99 190.188 1070.43 187.649 1065.55 187.649H1036.03C1031.83 187.649 1028.27 186.917 1025.34 185.452C1022.41 183.987 1020.01 182.156 1018.16 179.959C1016.35 177.762 1015.03 175.394 1014.2 172.854C1013.42 170.315 1013.03 167.947 1013.03 165.75C1013.03 161.502 1013.79 157.938 1015.3 155.057C1016.82 152.127 1018.72 149.759 1021.02 147.952C1023.31 146.146 1025.8 144.852 1028.49 144.07C1031.17 143.24 1033.69 142.825 1036.03 142.825H1082.83V161.868H1036.18C1035.2 161.868 1034.42 161.99 1033.83 162.234C1033.3 162.43 1032.88 162.723 1032.59 163.113C1032.34 163.455 1032.2 163.846 1032.15 164.285C1032.1 164.676 1032.08 165.066 1032.08 165.457C1032.12 166.238 1032.27 166.849 1032.51 167.288C1032.76 167.728 1033.05 168.045 1033.39 168.24C1033.78 168.436 1034.2 168.558 1034.64 168.606C1035.13 168.606 1035.59 168.606 1036.03 168.606H1065.55C1070.43 168.606 1074.58 169.485 1078 171.243C1081.42 173.001 1084.17 175.223 1086.27 177.908C1088.37 180.545 1089.89 183.426 1090.82 186.551C1091.79 189.676 1092.28 192.581 1092.28 195.267Z" fill="white" fill-opacity="0.04"/>
</svg>
